<svg width="40" height="40" viewBox="0 0 40 40" fill="none" xmlns="http://www.w3.org/2000/svg">
<path d="M39.402 24.8381C36.7309 35.5525 25.8789 42.0731 15.1633 39.4012C4.4521 36.7301 -2.06846 25.8775 0.603853 15.1639C3.27382 4.44838 14.1258 -2.07268 24.8381 0.598468C35.553 3.26961 42.0732 14.1234 39.4017 24.8383L39.4019 24.8381H39.402Z" fill="#419300"/>
<g clip-path="url(#clip0_76_3855)">
<path d="M25.835 21.0619C24.7923 20.1007 23.1942 19.2929 21.0941 18.6631C19.5833 18.1855 18.5357 17.6858 17.9792 17.1788C17.4699 16.7147 17.2226 16.1193 17.2226 15.3569C17.2226 14.4951 17.4638 13.8444 17.9598 13.3656C18.4545 12.8868 19.2378 12.645 20.2866 12.645C21.2614 12.645 21.9974 12.9494 22.537 13.5768C23.0948 14.2238 23.3651 15.0917 23.3651 16.1586C23.3651 16.4311 23.5834 16.6853 23.8526 16.6853H26.8014C27.0706 16.6853 27.2888 16.4299 27.2888 16.1586C27.2888 14.2508 26.7141 12.6806 25.7101 11.5229C24.7862 10.4597 23.4379 9.7673 21.8616 9.49475V6.82824C21.8616 6.55569 21.7743 6.25 21.5052 6.25H19.1274C18.8582 6.25 18.7079 6.55569 18.7079 6.82824V9.47879C17.1316 9.73292 15.833 10.3455 14.8897 11.3019C13.8469 12.3589 13.3013 13.7376 13.3013 15.3987C13.3013 17.0597 13.8675 18.5145 15.0024 19.5544C16.0864 20.5488 17.6894 21.3492 19.7773 21.9336C21.1717 22.3731 22.1708 22.8691 22.7516 23.4056C23.2875 23.9028 23.5482 24.4835 23.5482 25.1808C23.5482 26.0402 23.2524 26.6896 22.6449 27.1672C22.0083 27.6669 21.088 27.921 19.9119 27.921C18.8885 27.921 18.0507 27.6558 17.3499 27.1095C16.6975 26.6025 16.3665 25.7541 16.3665 24.4921C16.3665 24.2195 16.1483 24.0489 15.8791 24.0489H13.0188C12.8248 24.0489 12.6502 24.1152 12.5726 24.2944L12.5423 24.3386C12.5168 24.3975 12.5035 24.4479 12.5022 24.5129C12.4586 26.5865 13.0527 28.1874 14.2616 29.2812C15.3419 30.2597 16.7679 30.865 18.3441 31.0945V33.3179C18.3441 33.5904 18.5575 33.7463 18.8255 33.7463H21.1875C21.4567 33.7463 21.738 33.5904 21.738 33.3179V31.081C23.4355 30.849 24.7826 30.2597 25.8035 29.3291C26.9384 28.293 27.4986 26.8873 27.4986 25.1513C27.4986 23.4154 26.9275 22.0674 25.8338 21.0583L25.835 21.0619Z" fill="white"/>
</g>
<defs>
<clipPath id="clip0_76_3855">
<rect width="15" height="27.5" fill="white" transform="translate(12.5 6.25)"/>
</clipPath>
</defs>
</svg>
