<svg width="21" height="21" viewBox="0 0 21 21" fill="none" xmlns="http://www.w3.org/2000/svg">
<path fill-rule="evenodd" clip-rule="evenodd" d="M5.83917 0.0897926C5.64901 0.198747 5.52707 0.407671 5.52707 0.624471C5.52707 0.82999 5.57288 0.911172 5.85739 1.21002C6.12168 1.48757 6.20779 1.704 6.16563 1.98479C6.12923 2.22736 6.01824 2.38455 5.7155 2.62236C5.15435 3.06309 4.87189 3.63334 4.87086 4.32743C4.86996 4.92905 5.08388 5.41889 5.53196 5.84138C5.9213 6.20844 6.16198 6.26349 6.49751 6.06216C6.65672 5.96658 6.75839 5.76163 6.75839 5.53613C6.75839 5.31466 6.71193 5.23323 6.42983 4.96047C6.12956 4.67012 6.05765 4.43556 6.16046 4.08199C6.21833 3.883 6.26258 3.82458 6.52317 3.60269C7.18008 3.04344 7.41452 2.57477 7.41374 1.82231C7.41312 1.22971 7.16333 0.666846 6.73282 0.288133C6.38666 -0.0164539 6.12566 -0.0743356 5.83917 0.0897926ZM10.1488 0.0897926C9.95863 0.198747 9.83669 0.407671 9.83669 0.624471C9.83669 0.82999 9.8825 0.911172 10.167 1.21002C10.4313 1.48757 10.5174 1.704 10.4753 1.98479C10.4388 2.22736 10.3279 2.38455 10.0251 2.62236C9.46397 3.06309 9.1815 3.63334 9.18048 4.32743C9.17958 4.92905 9.3935 5.41889 9.84157 5.84138C10.2309 6.20844 10.4716 6.26349 10.8071 6.06216C10.9663 5.96658 11.068 5.76163 11.068 5.53613C11.068 5.31466 11.0215 5.23323 10.7395 4.96047C10.4392 4.67012 10.3673 4.43556 10.4701 4.08199C10.528 3.883 10.5722 3.82458 10.8328 3.60269C11.4897 3.04344 11.7241 2.57477 11.7234 1.82231C11.7227 1.22971 11.473 0.666846 11.0424 0.288133C10.6963 -0.0164539 10.4353 -0.0743356 10.1488 0.0897926ZM14.4584 0.0897926C14.2683 0.198747 14.1463 0.407671 14.1463 0.624471C14.1463 0.82999 14.1921 0.911172 14.4766 1.21002C14.7409 1.48757 14.827 1.704 14.7849 1.98479C14.7485 2.22736 14.6375 2.38455 14.3347 2.62236C13.7736 3.06309 13.4911 3.63334 13.4901 4.32743C13.4892 4.92905 13.7031 5.41889 14.1512 5.84138C14.5405 6.20844 14.7812 6.26349 15.1168 6.06216C15.276 5.96658 15.3776 5.76163 15.3776 5.53613C15.3776 5.31466 15.3312 5.23323 15.0491 4.96047C14.7488 4.67012 14.6769 4.43556 14.7797 4.08199C14.8376 3.883 14.8818 3.82458 15.1424 3.60269C15.7993 3.04344 16.0338 2.57477 16.033 1.82231C16.0324 1.22971 15.7826 0.666846 15.3521 0.288133C15.0059 -0.0164539 14.7449 -0.0743356 14.4584 0.0897926ZM0.323431 7.53102C0.158599 7.61221 0.0294744 7.7861 0.000251063 7.96614C-0.0284797 8.14307 2.41803 20.4174 2.53041 20.6601C2.58647 20.7812 2.65949 20.858 2.77425 20.9165C2.93724 20.9996 2.97463 21 10.5027 21C17.7602 21 18.0731 20.997 18.2103 20.9248C18.2995 20.8778 18.3881 20.7813 18.4458 20.6684C18.5131 20.5363 18.872 18.8132 19.7694 14.3134C20.4466 10.9179 21.0004 8.09351 21 8.03711C20.9989 7.87844 20.8313 7.62308 20.673 7.53886C20.5348 7.46539 20.1889 7.46285 10.4941 7.46375C1.33315 7.46461 0.446399 7.47048 0.323431 7.53102ZM5.10629 9.67798C5.17615 10.4022 5.21932 10.685 5.27982 10.8149C5.48791 11.2613 6.13727 11.2574 6.35559 10.8083L6.44284 10.6288L6.3537 9.73291C6.30465 9.2402 6.26484 8.80475 6.26521 8.76525C6.26582 8.69797 6.37947 8.69346 8.0718 8.69346H9.87773L9.8779 9.70875C9.87802 10.6495 9.88401 10.7338 9.95962 10.8577C10.2013 11.254 10.7855 11.254 11.0272 10.8577C11.1028 10.7338 11.1088 10.6495 11.1089 9.70875L11.1091 8.69346H12.915C13.9083 8.69346 14.7209 8.7081 14.7209 8.72599C14.7209 8.74392 14.684 9.11693 14.6388 9.55492C14.5359 10.5539 14.5359 10.6893 14.6386 10.8577C14.883 11.2584 15.4749 11.2524 15.7119 10.8468C15.7639 10.7578 15.807 10.4906 15.8676 9.88293C15.9136 9.42049 15.9619 8.96371 15.9748 8.8678L15.9983 8.69346H17.8161H19.6339L19.2646 10.5394L18.8953 12.3854H10.4934H2.09152L1.72209 10.539L1.35265 8.69264L3.18301 8.7033L5.01332 8.71397L5.10629 9.67798ZM18.526 14.2314L18.4031 14.8467H10.4934H2.58372L2.46076 14.2314L2.33779 13.6161H10.4934H18.649L18.526 14.2314ZM17.787 17.9234L17.4177 19.7693H16.1514C15.4549 19.7693 14.8851 19.7547 14.8851 19.7368C14.8851 19.7189 14.922 19.3459 14.9672 18.9079C15.0702 17.9089 15.0702 17.7736 14.9674 17.6051C14.723 17.2044 14.1311 17.2104 13.8941 17.616C13.8421 17.705 13.799 17.9722 13.7385 18.5799C13.6924 19.0423 13.6441 19.4991 13.6312 19.595L13.6077 19.7693H12.3584H11.1091L11.1089 18.7541C11.1088 17.8133 11.1028 17.729 11.0272 17.6051C10.9132 17.4181 10.7157 17.3083 10.4934 17.3083C10.2711 17.3083 10.0736 17.4181 9.95962 17.6051C9.88401 17.729 9.87802 17.8133 9.8779 18.7546L9.87773 19.7705L8.61596 19.7597L7.35419 19.7488L7.26126 18.7848C7.1914 18.0606 7.14823 17.7778 7.08773 17.6479C6.87963 17.2015 6.23028 17.2054 6.01196 17.6545L5.92471 17.834L6.01385 18.7299C6.0629 19.2226 6.10271 19.6581 6.10234 19.6976C6.10173 19.7644 6.01377 19.7693 4.8354 19.7693H3.56911L3.19975 17.9234L2.83044 16.0774H10.4934H18.1563L17.787 17.9234Z" fill="#F4683F"/>
</svg>
