<svg width="16" height="21" viewBox="0 0 16 21" fill="none" xmlns="http://www.w3.org/2000/svg">
<path fill-rule="evenodd" clip-rule="evenodd" d="M2.12267 2.03009C2.49596 0.989798 3.41398 0.22773 4.53441 0.0280609C4.89544 -0.036293 5.60186 0.0148043 5.98111 0.132759C6.92288 0.425553 7.65633 1.12085 7.9826 2.03009L8.09717 2.34931L8.11876 7.36083L8.14035 12.3723L8.37787 12.5646C9.45667 13.4379 10.1053 14.7873 10.1053 16.1586C10.1053 17.9995 9.08601 19.6083 7.39273 20.4399C5.87228 21.1867 4.23298 21.1867 2.71253 20.4399C1.01925 19.6083 0 17.9995 0 16.1586C0 14.7873 0.648594 13.4379 1.7274 12.5646L1.96491 12.3723L1.9865 7.36083L2.0081 2.34931L2.12267 2.03009ZM6.6427 2.23776C6.43135 1.80924 6.00905 1.45739 5.54563 1.3238C5.114 1.19936 4.52439 1.27286 4.1391 1.49917C3.90175 1.63859 3.59048 1.97842 3.46256 2.23776L3.34683 2.47244L3.32524 7.66425C3.32294 8.21604 3.3213 8.71107 3.31983 9.15541C3.30862 12.5433 3.30717 12.984 3.09877 13.1597C3.06762 13.186 3.03184 13.2063 2.99071 13.2297L2.9907 13.2297C2.9546 13.2503 2.91438 13.2732 2.86955 13.3045C1.77917 14.0653 1.19553 15.3108 1.34249 16.5633C1.40005 17.0538 1.51281 17.4034 1.75551 17.8437C2.20865 18.6658 2.99289 19.2851 3.95142 19.5778C4.36124 19.703 4.41738 19.7098 5.05263 19.7098C5.68788 19.7098 5.74402 19.703 6.15385 19.5778C6.39136 19.5053 6.73144 19.3639 6.90958 19.2637C8.3986 18.4257 9.09007 16.8396 8.65771 15.2538C8.45728 14.5188 7.91963 13.7817 7.23571 13.3045C7.19088 13.2732 7.15066 13.2503 7.11457 13.2297C7.07343 13.2063 7.03765 13.186 7.00649 13.1597C6.7981 12.984 6.79664 12.5433 6.78543 9.1554C6.78396 8.71107 6.78232 8.21603 6.78003 7.66425L6.75843 2.47244L6.6427 2.23776ZM4.50289 5.52588C4.55678 5.44918 4.66855 5.35412 4.7512 5.31468C4.83386 5.2752 4.9695 5.2429 5.05263 5.2429C5.25975 5.2429 5.48496 5.35884 5.60238 5.52588L5.70041 5.66534V9.91738V14.1694L6.01337 14.3122C6.91831 14.725 7.43786 15.7631 7.19076 16.6646C6.96343 17.4941 6.22463 18.1359 5.36335 18.2519C4.17421 18.4123 3.05213 17.6056 2.87944 16.4662C2.74777 15.5977 3.25696 14.693 4.0919 14.3122L4.40486 14.1694V9.91738V5.66534L4.50289 5.52588ZM16 9.80227C16 9.41697 15.6994 9.10461 15.3286 9.10461H10.7767C10.4059 9.10461 10.1053 9.41697 10.1053 9.80227C10.1053 10.1876 10.4059 10.4999 10.7767 10.4999H15.3286C15.6994 10.4999 16 10.1876 16 9.80227ZM13.6296 5.96777C14.0004 5.96777 14.301 6.28013 14.301 6.66543C14.301 7.05074 14.0004 7.36309 13.6296 7.36309H10.7765C10.4056 7.36309 10.105 7.05074 10.105 6.66543C10.105 6.28013 10.4056 5.96777 10.7765 5.96777H13.6296ZM12.5362 3.52859C12.5362 3.14329 12.2356 2.83093 11.8648 2.83093H10.7772C10.4064 2.83093 10.1058 3.14329 10.1058 3.52859C10.1058 3.9139 10.4064 4.22625 10.7772 4.22625H11.8648C12.2356 4.22625 12.5362 3.9139 12.5362 3.52859Z" fill="#F4683F"/>
</svg>
